# xmcd CD database file
#
# Track frame offsets:
#	150
#	24075
#	33657
#	61548
#	102891
#	112323
#	164383
#	173812
#	223312
#	232795
#
# Disc length: 3508 seconds
#
# Revision: 0
# Processed by: cddbd v1.5.2PL0 Copyright (c) Steve Scherf et al.
# Submitted via: CDex 1.70beta2
#
DISCID=7d0db20a
DTITLE=Isaiah Ceccarelli - Lieux-dits
DYEAR=2005
DGENRE=Jazz
TTITLE0=La Luna Déssèdyanta
TTITLE1=Peirada n°1
TTITLE2=Nuèit
TTITLE3=Bèç
TTITLE4=Peirada n°2
TTITLE5=Estaoubio pouri na repaousa't roussi, minjo pa quan n'as
TTITLE6=Peirada n°3
TTITLE7=Bacan
TTITLE8=Peirada n°4
TTITLE9=Bruine
EXTD=YEAR: 2005
EXTT0=
EXTT1=
EXTT2=
EXTT3=
EXTT4=
EXTT5=
EXTT6=
EXTT7=
EXTT8=
EXTT9=
PLAYORDER=
